<?xml version="1.0" standalone="no"?>
<!DOCTYPE svg PUBLIC "-//W3C//DTD SVG 20010904//EN"
 "http://www.w3.org/TR/2001/REC-SVG-20010904/DTD/svg10.dtd">
<svg version="1.0" xmlns="http://www.w3.org/2000/svg"
 width="1024.000000pt" height="1024.000000pt" viewBox="0 0 1024.000000 1024.000000"
 preserveAspectRatio="xMidYMid meet">
<metadata>
Created by potrace 1.11, written by Peter Selinger 2001-2013
</metadata>
<g transform="translate(0.000000,1024.000000) scale(0.100000,-0.100000)"
fill="#000000" stroke="none">
<path d="M2655 9906 c-271 -54 -500 -226 -620 -466 -30 -61 -59 -139 -70 -188
-3 -12 -8 -32 -11 -44 -11 -40 -13 -241 -4 -305 18 -117 87 -282 159 -378 150
-198 355 -319 596 -351 44 -6 205 -5 241 1 264 47 482 192 612 408 96 158 127
272 126 467 -1 128 -4 156 -27 233 -92 301 -307 516 -604 603 -110 32 -291 41
-398 20z"/>
<path d="M1945 6568 c2 -673 4 -1556 6 -1963 1 -407 5 -780 10 -830 13 -144
20 -209 24 -230 3 -11 7 -38 9 -60 12 -101 41 -239 86 -410 208 -784 675
-1478 1340 -1991 506 -390 1129 -642 1800 -729 211 -27 693 -27 880 0 14 2 50
7 80 10 30 4 64 9 75 11 11 2 31 6 45 9 14 2 39 7 55 9 17 3 41 8 55 11 14 3
45 10 70 15 77 16 83 17 177 44 137 39 264 82 403 138 160 65 489 230 498 251
2 4 8 7 13 7 6 0 22 8 37 19 15 10 61 41 102 67 158 103 364 268 508 407 l73
70 -626 625 -625 624 -43 -38 c-23 -21 -51 -47 -62 -57 -44 -42 -205 -157
-289 -207 -223 -134 -517 -232 -773 -257 -114 -12 -387 -8 -468 6 -38 7 -82
14 -97 17 -16 2 -41 6 -56 9 -55 9 -208 57 -297 92 -237 94 -446 228 -634 408
-80 76 -215 233 -258 301 -112 172 -185 319 -236 474 -47 141 -72 247 -91 395
-13 91 -16 297 -21 1220 -5 953 -7 1070 -25 1190 -5 33 -12 78 -15 100 -4 22
-20 93 -37 158 -129 503 -422 870 -877 1097 -164 82 -429 166 -581 185 -30 4
-64 9 -75 12 -11 2 -52 6 -92 9 l-72 4 4 -1222z"/>
<path d="M5547 7763 c-1 -1 -55 -4 -119 -8 -64 -3 -125 -7 -135 -9 -10 -2 -45
-7 -78 -10 -196 -23 -442 -74 -600 -123 -247 -77 -358 -120 -555 -214 -147
-71 -390 -207 -390 -220 0 -3 22 -53 48 -110 90 -192 165 -444 196 -654 3 -22
7 -49 10 -60 2 -11 7 -51 11 -90 4 -38 10 -83 12 -100 4 -31 12 -688 13 -1003
l0 -174 84 126 c215 322 493 558 836 708 101 45 222 88 285 103 231 53 333 65
545 60 186 -5 199 -6 365 -42 331 -70 615 -216 886 -455 l76 -66 622 622 c341
342 621 626 621 630 0 12 -100 107 -211 202 -370 313 -755 533 -1209 690 -121
41 -368 109 -440 120 -19 3 -51 9 -70 14 -19 4 -57 11 -85 15 -27 4 -59 9 -70
11 -11 1 -45 5 -75 9 -30 3 -68 8 -85 10 -61 10 -482 25 -488 18z"/>
</g>
</svg>
