<?xml version="1.0" encoding="utf-8"?>
<!-- Generator: Adobe Illustrator 21.0.0, SVG Export Plug-In . SVG Version: 6.00 Build 0)  -->
<svg version="1.1" id="Layer_1" xmlns="http://www.w3.org/2000/svg" xmlns:xlink="http://www.w3.org/1999/xlink" x="0px" y="0px"
	 viewBox="0 0 566 647" style="enable-background:new 0 0 566 647;" xml:space="preserve">
<circle cx="143.9" cy="80.2" r="52.9"/>
<path d="M212.8,261.1l0.4,64.2c20-36.2,58.6-60.8,102.8-60.8c31.3,0,60.8,12.2,83,34.4l75.7-75.7c-42.4-42.4-98.7-65.7-158.6-65.7
	c-43.5,0-85,12.3-120.8,35.2C204.8,210.5,211.3,232.9,212.8,261.1z"/>
<path d="M399.2,464.7c-22.2,22.2-51.7,34.5-83.1,34.5c-64.7,0-117.4-52.6-117.4-117.4c0-0.5,0-1-0.1-1.4l-0.6-117
	C192.4,156,91.1,155.9,91.1,155.9l0.6,225.9c0,59.9,23.3,116.3,65.7,158.6c42.4,42.4,98.7,65.7,158.6,65.7
	c60,0,116.5-23.4,158.9-65.9L399.2,464.7z"/>
</svg>
